<svg xmlns="http://www.w3.org/2000/svg" xmlns:xlink="http://www.w3.org/1999/xlink" width="2000" zoomAndPan="magnify" viewBox="0 0 1500 1499.999933" height="2000" preserveAspectRatio="xMidYMid meet" version="1.0"><defs><clipPath id="a41d415b44"><path d="M 528.375 450 L 971.625 450 L 971.625 1050 L 528.375 1050 Z M 528.375 450 " clip-rule="nonzero"/></clipPath><clipPath id="b7fdafc0d7"><path d="M 174.195312 84.332031 L 1325.445312 84.332031 L 1325.445312 1043 L 174.195312 1043 Z M 174.195312 84.332031 " clip-rule="nonzero"/></clipPath><clipPath id="15f0713be8"><path d="M 174.195312 457 L 1325.445312 457 L 1325.445312 1415 L 174.195312 1415 Z M 174.195312 457 " clip-rule="nonzero"/></clipPath></defs><g clip-path="url(#a41d415b44)"><path fill="#ffffff" d="M 553.230469 848.484375 L 565.933594 848.484375 C 568.609375 895.152344 587.328125 933.53125 622.363281 963.882812 C 656.597656 993.835938 696.042969 1008.679688 740.4375 1008.679688 C 774.671875 1008.679688 802.484375 999.050781 824.148438 979.796875 C 845.808594 960.542969 856.105469 937.273438 856.105469 910.398438 C 856.105469 881.914062 845.675781 859.851562 824.949219 844.207031 C 805.027344 828.960938 765.3125 811.578125 706.207031 792.320312 C 658.734375 776.675781 625.171875 763.574219 604.980469 753.410156 C 581.582031 741.375 563.394531 725.0625 550.15625 704.734375 C 535.847656 684.007812 528.761719 660.609375 528.761719 634.667969 C 528.761719 605.917969 538.386719 577.703125 557.644531 550.023438 C 553.367188 564.332031 551.09375 576.632812 551.09375 587.328125 C 551.09375 615.8125 557.777344 640.683594 571.285156 662.214844 C 585.191406 684.410156 602.171875 701.257812 622.632812 712.492188 C 642.957031 724.125 677.191406 737.496094 724.792969 752.339844 C 787.105469 771.328125 832.035156 792.1875 859.71875 815.1875 C 886.328125 837.386719 899.566406 867.339844 899.566406 904.78125 C 899.566406 941.6875 885.660156 974.984375 857.980469 1004.667969 C 829.898438 1035.023438 787.910156 1050 732.148438 1050 C 709.550781 1050 678.257812 1045.722656 638.144531 1037.429688 C 603.109375 1030.074219 576.898438 1026.199219 559.382812 1026.0625 L 555.503906 1021.785156 C 555.90625 1015.632812 556.171875 1007.476562 556.171875 997.714844 C 556.171875 986.082031 555.105469 968.03125 552.964844 943.558594 C 551.09375 919.089844 550.289062 901.035156 550.289062 888.734375 C 550.957031 873.355469 551.894531 859.851562 553.230469 848.484375 Z M 939.28125 620.089844 L 927.914062 620.089844 C 927.511719 577.703125 910.796875 546.410156 877.636719 526.085938 C 845.273438 506.164062 805.828125 496 759.5625 496 C 722.652344 496 692.566406 503.890625 668.765625 519.402344 C 644.695312 535.046875 632.792969 553.765625 632.792969 575.832031 C 632.792969 599.230469 642.421875 617.550781 661.277344 631.054688 C 681.066406 645.765625 719.710938 663.015625 777.746094 682.941406 C 831.636719 701.527344 869.34375 716.769531 890.875 728.269531 C 913.875 741.109375 932.996094 759.160156 948.238281 783.09375 C 963.484375 807.566406 971.238281 834.578125 971.238281 864.53125 C 971.238281 910.128906 954.523438 945.699219 920.960938 971.640625 C 933.394531 954.523438 939.546875 930.453125 939.546875 899.566406 C 939.546875 870.414062 932.863281 844.605469 919.355469 822.007812 C 905.046875 799.007812 887.664062 780.824219 866.804688 767.183594 C 845.675781 753.277344 811.175781 738.433594 763.4375 722.789062 C 691.632812 699.121094 644.695312 678.792969 623.03125 662.078125 C 601.238281 644.964844 590.273438 618.351562 590.273438 582.25 C 590.273438 540.660156 606.988281 508.167969 640.550781 484.367188 C 674.113281 461.367188 721.585938 450 783.230469 450 C 825.21875 450 876.296875 457.355469 936.875 471.796875 L 936.875 475.675781 L 937.941406 496.402344 C 937.941406 507.367188 938.34375 520.46875 939.011719 535.714844 C 940.082031 554.300781 940.617188 570.75 940.617188 584.921875 C 940.214844 594.683594 939.816406 606.183594 939.28125 620.089844 Z M 939.28125 620.089844 " fill-opacity="1" fill-rule="nonzero"/></g><g clip-path="url(#b7fdafc0d7)"><path fill="#004aad" d="M 1325.820312 417.441406 L 1325.820312 616.8125 L 749.996094 284.355469 L 417.230469 476.523438 L 346.824219 517.132812 L 346.824219 608.929688 L 496.949219 695.628906 L 923.625 941.917969 L 749.996094 1042.132812 L 174.175781 707.941406 L 174.175781 417.441406 L 749.996094 84.976562 Z M 1325.820312 417.441406 " fill-opacity="1" fill-rule="nonzero"/></g><g clip-path="url(#15f0713be8)"><path fill="#0f4d7f" d="M 749.996094 457.675781 L 1325.820312 790.285156 L 1325.820312 1082.363281 L 749.996094 1414.90625 L 174.175781 1082.363281 L 174.175781 881.640625 L 749.996094 1215.527344 L 1073.75 1028.617188 L 1153.167969 982.75 L 1153.167969 901.386719 L 1003.046875 814.757812 L 567.367188 563.144531 Z M 749.996094 457.675781 " fill-opacity="1" fill-rule="nonzero"/></g></svg>